<svg xmlns="http://www.w3.org/2000/svg" width="559.769" height="315.05" viewBox="0 0 559.769 315.05">
  <g id="Group_1" data-name="Group 1" transform="translate(-703.847 -392)">
    <ellipse id="Ellipse_1" data-name="Ellipse 1" cx="115.83" cy="110.75" rx="115.83" ry="110.75" transform="translate(854.77 424.41)" fill="#fe3706"/>
    <path id="Path_1" data-name="Path 1" d="M250.46,317.07l67.76.29a16.29,16.29,0,0,1,14.1,10.26c-3.65,1.83-16.37,8.78-22.78,24.15-8.3,19.92.73,37.88,2.45,41.12,8.94,16.91,24.68,22.79,28.43,24.08a5.7,5.7,0,0,1-7.87,8.1,41.12,41.12,0,0,1-10.63-10.85,40.681,40.681,0,0,1-4.12-8l-4.13-.08-8.64,38H250.46Z" transform="translate(664.6 155.49)" fill="#fffff5"/>
    <path id="Path_2" data-name="Path 2" d="M386.09,336.1a75.17,75.17,0,0,0-35.66-7.79,73.63,73.63,0,0,0-21.55,4,47.21,47.21,0,0,0-15.36,57.78,30.23,30.23,0,0,0,6.94,10.11,65.226,65.226,0,0,0,13.23,9c2.89,1.5,5.34,2.5,7.65,5.27a17.06,17.06,0,0,1,3,5.51c0,.59-.39,5.05-3.86,7.28-4.19,2.69-10.21-1.32-13.15-3.23-6.78-4.41-10.1-11-11.7-15.2q-4.81,20.6-9.65,41.18a67.36,67.36,0,0,0,27.77,10.17,68.11,68.11,0,0,0,37.76-6.15,41.451,41.451,0,0,0,12.2-13.29c10.69-18.77,1.94-39.44.64-42.4a43.151,43.151,0,0,0-10.85-13.07c-5.42-4.29-9.91-4.54-18.58-11.08-2.13-1.61-6.38-5-6.4-8.9a7.23,7.23,0,0,1,1.09-3.84,6.56,6.56,0,0,1,2.87-2.24,11,11,0,0,1,7.62-.23c2.64.79,4.61,2.27,7.2,4.89a60.5,60.5,0,0,1,9.48,12.54Q381.45,356.29,386.09,336.1Z" transform="translate(664.6 155.49)" fill="#feffff"/>
    <path id="Path_3" data-name="Path 3" d="M289.9,342.35v25.17a10.89,10.89,0,0,0,11.41-7.63c2-5.56.73-14-4.83-16.81a10.05,10.05,0,0,0-6.58-.73Z" transform="translate(664.6 155.49)" fill="#f33410"/>
    <path id="Path_4" data-name="Path 4" d="M290.84,389.83V415a11.51,11.51,0,0,0,7.68-2.23,11.37,11.37,0,0,0,3.73-5.39c2-5.56.73-14-4.83-16.81a10.05,10.05,0,0,0-6.58-.74Z" transform="translate(664.6 155.49)" fill="#ef3b00"/>
    <path id="Path_5" data-name="Path 5" d="M352.73,306.06c-1.8,4.09-2,7.56-.39,8.87.46.37,1.22.71,4.05.46a30.11,30.11,0,0,0,8.34-1.91c4.54-2,14.71-12,25.22-27.75L377.11,272.2Z" transform="translate(664.6 155.49)" fill="#fff"/>
    <path id="Path_6" data-name="Path 6" d="M381.31,236.51c-1.07,10.87-4.66,17.81-7.79,22.17-4.76,6.62-8.89,7.88-16.36,17.73-4.07,5.36-6.6,8.69-8.09,13.63-3,9.82.29,19,2.43,23.67a136.809,136.809,0,0,0,29.26-30.29A56.7,56.7,0,0,1,355,315.54c2.16.51,20.92,4.64,33-6.88s9-30.43,7.79-37.6c-1.56-9.56-5.92-18.47-7.64-22.32a75.058,75.058,0,0,0-6.84-12.23Z" transform="translate(664.6 155.49)" fill="#066a17"/>
    <text id="BAZARSARDAR" transform="translate(703.847 695.06)" fill="#fd3706" font-size="42" font-family="SegoeUI-Bold, Segoe UI" font-weight="700" letter-spacing="0.01em"><tspan x="0" y="0">BAZARSARDAR</tspan></text>
    <rect id="Rectangle_1" data-name="Rectangle 1" width="20.98" height="4.76" rx="0.5" transform="translate(1082.61 675.79)" fill="#2b6514"/>
    <rect id="Rectangle_2" data-name="Rectangle 2" width="22.9" height="4.76" rx="0.5" transform="translate(1054.55 675.68)" fill="#cf460a"/>
    <rect id="Rectangle_3" data-name="Rectangle 3" width="6.42" height="42.74" transform="translate(1076.77 657.68)" fill="#234a1d"/>
    <rect id="Rectangle_4" data-name="Rectangle 4" width="6.65" height="42.74" transform="translate(1105.66 657.68)" fill="#234a1d"/>
    <text id="EALTH" transform="translate(1118.616 696.05)" fill="#2b6514" font-size="42" font-family="SegoeUI-Bold, Segoe UI" font-weight="700" letter-spacing="0.1em"><tspan x="0" y="0">EALTH</tspan></text>
  </g>
</svg>
