<svg id="Layer_1" data-name="Layer 1" xmlns="http://www.w3.org/2000/svg" viewBox="0 0 318.16 312.04"><defs><style>.cls-1{fill:#fe3706;}.cls-2{fill:#fffff5;}.cls-3{fill:#feffff;}.cls-4{fill:#f33410;}.cls-5{fill:#ef3b00;}.cls-6{fill:#fff;}.cls-7{fill:#066a17;}.cls-8{font-size:23px;fill:#fd3706;letter-spacing:0.07em;}.cls-12,.cls-8{font-family:MyriadPro-Regular, Myriad Pro;}.cls-12,.cls-9{fill:#2b6514;}.cls-10{fill:#cf460a;}.cls-11{fill:#234a1d;}.cls-12{font-size:28px;letter-spacing:0.1em;}</style></defs><ellipse class="cls-1" cx="156.6" cy="143.16" rx="115.83" ry="110.75"/><path class="cls-2" d="M250.46,317.07l67.76.29a16.29,16.29,0,0,1,14.1,10.26c-3.65,1.83-16.37,8.78-22.78,24.15-8.3,19.92.73,37.88,2.45,41.12,8.94,16.91,24.68,22.79,28.43,24.08a5.7,5.7,0,0,1-7.87,8.1,41.12,41.12,0,0,1-10.63-10.85,40.68,40.68,0,0,1-4.12-8l-4.13-.08-8.64,38H250.46Z" transform="translate(-149.4 -236.51)"/><path class="cls-3" d="M386.09,336.1a75.17,75.17,0,0,0-35.66-7.79,73.63,73.63,0,0,0-21.55,4,47.21,47.21,0,0,0-15.36,57.78,30.23,30.23,0,0,0,6.94,10.11c4.84,4.57,12.11,8.45,13.23,9,2.89,1.5,5.34,2.5,7.65,5.27a17.06,17.06,0,0,1,3,5.51c0,.59-.39,5.05-3.86,7.28-4.19,2.69-10.21-1.32-13.15-3.23-6.78-4.41-10.1-11-11.7-15.2q-4.81,20.6-9.65,41.18a67.36,67.36,0,0,0,27.77,10.17,68.11,68.11,0,0,0,37.76-6.15,41.45,41.45,0,0,0,12.2-13.29c10.69-18.77,1.94-39.44.64-42.4a43.15,43.15,0,0,0-10.85-13.07c-5.42-4.29-9.91-4.54-18.58-11.08-2.13-1.61-6.38-5-6.4-8.9a7.23,7.23,0,0,1,1.09-3.84,6.56,6.56,0,0,1,2.87-2.24,11,11,0,0,1,7.62-.23c2.64.79,4.61,2.27,7.2,4.89a60.5,60.5,0,0,1,9.48,12.54Q381.45,356.29,386.09,336.1Z" transform="translate(-149.4 -236.51)"/><path class="cls-4" d="M289.9,342.35v25.17a10.89,10.89,0,0,0,11.41-7.63c2-5.56.73-14-4.83-16.81A10.05,10.05,0,0,0,289.9,342.35Z" transform="translate(-149.4 -236.51)"/><path class="cls-5" d="M290.84,389.83V415a11.51,11.51,0,0,0,7.68-2.23,11.37,11.37,0,0,0,3.73-5.39c2-5.56.73-14-4.83-16.81A10.05,10.05,0,0,0,290.84,389.83Z" transform="translate(-149.4 -236.51)"/><path class="cls-6" d="M352.73,306.06c-1.8,4.09-2,7.56-.39,8.87.46.37,1.22.71,4.05.46a30.11,30.11,0,0,0,8.34-1.91c4.54-2,14.71-12,25.22-27.75L377.11,272.2Z" transform="translate(-149.4 -236.51)"/><path class="cls-7" d="M381.31,236.51c-1.07,10.87-4.66,17.81-7.79,22.17-4.76,6.62-8.89,7.88-16.36,17.73-4.07,5.36-6.6,8.69-8.09,13.63-3,9.82.29,19,2.43,23.67a136.81,136.81,0,0,0,29.26-30.29A56.7,56.7,0,0,1,355,315.54c2.16.51,20.92,4.64,33-6.88s9-30.43,7.79-37.6c-1.56-9.56-5.92-18.47-7.64-22.32A75.06,75.06,0,0,0,381.31,236.51Z" transform="translate(-149.4 -236.51)"/><text class="cls-8" transform="translate(0 306.11)">BAZARSARDAR</text><rect class="cls-9" x="190.6" y="281.48" width="20.98" height="4.76" rx="0.5"/><rect class="cls-10" x="162.54" y="281.37" width="22.9" height="4.76" rx="0.5"/><rect class="cls-11" x="184.76" y="263.37" width="6.42" height="42.74"/><rect class="cls-11" x="213.65" y="263.37" width="6.65" height="42.74"/><text class="cls-12" transform="translate(227.86 305.04)">EALTH</text></svg>